<svg xmlns="http://www.w3.org/2000/svg" xmlns:xlink="http://www.w3.org/1999/xlink" viewBox="0 0 32 32"><defs><linearGradient gradientUnits="userSpaceOnUse" y2="352.98" x2="-601.15" y1="663.95" x1="-591.02" id="3"><stop stop-color="#289bf7"/><stop offset="1" stop-color="#4caaf4"/></linearGradient><linearGradient xlink:href="#1" id="4" x1="400.57" y1="539.15" x2="400.65" y2="527.97" gradientUnits="userSpaceOnUse"/><linearGradient gradientUnits="userSpaceOnUse" y2="354.29" x2="-704.05" y1="647.77" x1="-701.19" id="2"><stop stop-color="#9fd2fa"/><stop offset="1" stop-color="#cde8fe"/></linearGradient><linearGradient xlink:href="#1" id="0" x1="59.12" y1="-13.295" x2="59.15" y2="-37.783" gradientUnits="userSpaceOnUse" gradientTransform="matrix(4.17478 0 0 4.16765-1069.7 447.73)"/><linearGradient id="1"><stop stop-color="#289bf7"/><stop offset="1" stop-color="#71b9f1"/></linearGradient></defs><g transform="translate(-384.57-515.8)"><g transform="matrix(.0558 0 0 .0558 437.31 505.35)"><path d="m-884.1 294.78c-4.626 0-8.349 3.718-8.349 8.335v161.41l468.19 1v-121.2c0-4.618-3.724-8.335-8.35-8.335h-272.65c-8.51.751-9.607-.377-13.812-5.981-5.964-7.968-14.969-21.443-20.84-29.21-4.712-6.805-5.477-6.02-13.292-6.02z" fill="url(#0)" color="#000"/><rect y="356.85" x="-890.28" height="295.13" width="463.85" fill="url(#2)" stroke="url(#2)" stroke-width="2.378" rx="9.63"/><rect y="356.85" x="-890.28" height="295.13" width="463.85" fill="none" stroke="url(#3)" stroke-linejoin="round" stroke-linecap="round" stroke-width="5.376" rx="9.63"/></g><path d="m400.85 527.72c-1.337.043 3.562 6.803-.211 6.371 3.147.872 3.867-3.189 3.225-5.176-.636-1.968-.967-.74-2.864-1.177-.057-.013-.106-.019-.149-.018m-3.749.942c-2.068-.003-1 .692-2 2.361-.957 1.594 7.558-1.261 5.931 2.306 1.801-2.723-1.838-4.664-3.927-4.666m1.455 3.051c-1.655-.004-3.32 1.876-3.786 3.303-.642 1.966.348 1.168 1.625 2.636 1.22 1.403 1.137-7.579 4.03-4.929-.572-.718-1.218-1.01-1.866-1.01m7.113.319c-1.117.107-5.193 5.287-5.875 1.925.143 3.262 4.229 2.692 5.92 1.467 1.675-1.214.404-1.149.234-3.089-.02-.232-.119-.319-.279-.304m-6.01 1.08c-3.058 1.144-1.253 4.854.434 6.084 1.672 1.218 1.218.029 3.01-.732 1.711-.727-6.857-3.423-3.444-5.352" fill="url(#4)" fill-rule="evenodd"/></g></svg>