<svg xmlns="http://www.w3.org/2000/svg" xmlns:xlink="http://www.w3.org/1999/xlink" viewBox="0 0 32 32"><defs><linearGradient gradientUnits="userSpaceOnUse" y2="-26.16" x2="83.5" y1="144.86" x1="89.07" id="3"><stop stop-color="#289bf7"/><stop offset="1" stop-color="#4caaf4"/></linearGradient><linearGradient xlink:href="#1" id="4" x1="17.923" y1="23.875" x2="17.958" y2="11.992" gradientUnits="userSpaceOnUse"/><linearGradient gradientUnits="userSpaceOnUse" y2="354.29" x2="-704.05" y1="647.77" x1="-701.19" id="2"><stop stop-color="#9fd2fa"/><stop offset="1" stop-color="#cde8fe"/></linearGradient><linearGradient xlink:href="#1" id="0" x1="59.12" y1="-13.295" x2="59.15" y2="-37.783" gradientUnits="userSpaceOnUse" gradientTransform="matrix(4.17478 0 0 4.16765-1069.7 447.73)"/><linearGradient id="1"><stop stop-color="#289bf7"/><stop offset="1" stop-color="#71b9f1"/></linearGradient></defs><g transform="translate(-384.57-515.8)" fill="#60aae5"><g transform="matrix(.26034 0 0 .26034 294.19 397.45)" stroke="#60aae5" font-size="12.666"><g font-family="&apos;Bitstream Vera Sans&apos;"><text y="504.23" x="1172.2" opacity=".8"><tspan y="504.23" x="1172.2"/></text><text y="463.49" x="1196.16" opacity=".8"><tspan y="463.49" x="1196.16"/></text><text y="433.41" x="-274.39" opacity=".8"><tspan y="433.41" x="-274.39"/></text><text y="1178.96" x="-2098.08" opacity=".8"><tspan y="1178.96" x="-2098.08"/></text><text y="48.09" x="-159.9" opacity=".8"><tspan y="48.09" x="-159.9"/></text><text y="-365.38" x="647.7" opacity=".8"><tspan y="-365.38" x="647.7"/></text><text y="-406.12" x="671.66" opacity=".8"><tspan y="-406.12" x="671.66"/></text><text y="-413.33" x="-819.8" opacity=".8"><tspan y="-413.33" x="-819.8"/></text><text y="-686.57" x="640.74" opacity=".8"><tspan y="-686.57" x="640.74"/></text><text y="-59.877" x="2126.86" opacity=".8"><tspan y="-59.877" x="2126.86"/></text><text y="-100.62" x="2150.82" opacity=".8"><tspan y="-100.62" x="2150.82"/></text><text y="-107.83" x="659.36" opacity=".8"><tspan y="-107.83" x="659.36"/></text><text y="-381.06" x="2119.9" opacity=".8"><tspan y="-381.06" x="2119.9"/></text><text y="-155.92" x="-278.45" opacity=".8"><tspan y="-155.92" x="-278.45"/></text><text y="589.63" x="-2102.14" opacity=".8"><tspan y="589.63" x="-2102.14"/></text><text y="682.51" x="-387.38" opacity=".8"><tspan y="682.51" x="-387.38"/></text><text y="503.32" x="721.64" opacity=".8"><tspan y="503.32" x="721.64"/></text><text y="462.58" x="745.6" opacity=".8"><tspan y="462.58" x="745.6"/></text><text y="455.37" x="-745.86" opacity=".8"><tspan y="455.37" x="-745.86"/></text><text y="182.14" x="714.68" opacity=".8"><tspan y="182.14" x="714.68"/></text><text y="452.66" x="-313.05" opacity=".8"><tspan y="452.66" x="-313.05"/></text><text y="1198.21" x="-2136.74" opacity=".8"><tspan y="1198.21" x="-2136.74"/></text><text y="-408.87" x="-161.96" opacity=".8"><tspan y="-408.87" x="-161.96"/></text><text y="-822.34" x="645.64" opacity=".8"><tspan y="-822.34" x="645.64"/></text><text y="-863.08" x="669.6" opacity=".8"><tspan y="-863.08" x="669.6"/></text><text y="-870.29" x="-821.86" opacity=".8"><tspan y="-870.29" x="-821.86"/></text><text y="-1143.53" x="638.68" opacity=".8"><tspan y="-1143.53" x="638.68"/></text><text y="-516.84" x="2124.8" opacity=".8"><tspan y="-516.84" x="2124.8"/></text><text y="-557.58" x="2148.77" opacity=".8"><tspan y="-557.58" x="2148.77"/></text><text y="-564.79" x="657.3" opacity=".8"><tspan y="-564.79" x="657.3"/></text><text y="-838.02" x="2117.84" opacity=".8"><tspan y="-838.02" x="2117.84"/></text><text y="-612.88" x="-280.51" opacity=".8"><tspan y="-612.88" x="-280.51"/></text><text y="132.67" x="-2104.2" opacity=".8"><tspan y="132.67" x="-2104.2"/></text><text y="225.55" x="-389.44" opacity=".8"><tspan y="225.55" x="-389.44"/></text><text y="466.46" x="450.57" opacity=".8"><tspan y="466.46" x="450.57"/></text><text y="425.72" x="474.53" opacity=".8"><tspan y="425.72" x="474.53"/></text><text y="231.69" x="-795.29" opacity=".8"><tspan y="231.69" x="-795.29"/></text><text y="-181.78" x="12.316" opacity=".8"><tspan y="-181.78" x="12.316"/></text><text y="-222.52" x="36.28" opacity=".8"><tspan y="-222.52" x="36.28"/></text><text y="-229.73" x="-1455.19" opacity=".8"><tspan y="-229.73" x="-1455.19"/></text><text y="-502.97" x="5.357" opacity=".8"><tspan y="-502.97" x="5.357"/></text><text y="123.72" x="1491.48" opacity=".8"><tspan y="123.72" x="1491.48"/></text><text y="82.983" x="1515.44" opacity=".8"><tspan y="82.983" x="1515.44"/></text><text y="75.77" x="23.978" opacity=".8"><tspan y="75.77" x="23.978"/></text><text y="-197.46" x="1484.52" opacity=".8"><tspan y="-197.46" x="1484.52"/></text><text y="27.682" x="-913.84" opacity=".8"><tspan y="27.682" x="-913.84"/></text><text y="773.24" x="-2737.52" opacity=".8"><tspan y="773.24" x="-2737.52"/></text><text x="-1022.77" y="866.11" opacity=".8"><tspan x="-1022.77" y="866.11"/></text><text y="511.47" x="1172.2" opacity=".8"><tspan y="511.47" x="1172.2"/></text><text y="470.72" x="1196.16" opacity=".8"><tspan y="470.72" x="1196.16"/></text><text y="440.65" x="-274.39" opacity=".8"><tspan y="440.65" x="-274.39"/></text><text y="1186.2" x="-2098.08" opacity=".8"><tspan y="1186.2" x="-2098.08"/></text><text y="55.33" x="-159.9" opacity=".8"><tspan y="55.33" x="-159.9"/></text><text y="-358.14" x="647.7" opacity=".8"><tspan y="-358.14" x="647.7"/></text><text y="-398.89" x="671.66" opacity=".8"><tspan y="-398.89" x="671.66"/></text><text y="-406.1" x="-819.8" opacity=".8"><tspan y="-406.1" x="-819.8"/></text><text y="-679.33" x="640.74" opacity=".8"><tspan y="-679.33" x="640.74"/></text><text y="-52.639" x="2126.86" opacity=".8"><tspan y="-52.639" x="2126.86"/></text><text y="-93.38" x="2150.82" opacity=".8"><tspan y="-93.38" x="2150.82"/></text><text y="-100.59" x="659.36" opacity=".8"><tspan y="-100.59" x="659.36"/></text><text y="-373.82" x="2119.9" opacity=".8"><tspan y="-373.82" x="2119.9"/></text><text y="-148.68" x="-278.45" opacity=".8"><tspan y="-148.68" x="-278.45"/></text><text y="596.87" x="-2102.14" opacity=".8"><tspan y="596.87" x="-2102.14"/></text><text y="689.74" x="-387.38" opacity=".8"><tspan y="689.74" x="-387.38"/></text><text y="510.56" x="721.64" opacity=".8"><tspan y="510.56" x="721.64"/></text><text y="469.82" x="745.6" opacity=".8"><tspan y="469.82" x="745.6"/></text><text y="462.61" x="-745.86" opacity=".8"><tspan y="462.61" x="-745.86"/></text><text y="189.38" x="714.68" opacity=".8"><tspan y="189.38" x="714.68"/></text><text y="459.9" x="-313.05" opacity=".8"><tspan y="459.9" x="-313.05"/></text><text y="1205.45" x="-2136.74" opacity=".8"><tspan y="1205.45" x="-2136.74"/></text><text y="-401.63" x="-161.96" opacity=".8"><tspan y="-401.63" x="-161.96"/></text><text y="-815.11" x="645.64" opacity=".8"><tspan y="-815.11" x="645.64"/></text><text y="-855.85" x="669.6" opacity=".8"><tspan y="-855.85" x="669.6"/></text><text y="-863.06" x="-821.86" opacity=".8"><tspan y="-863.06" x="-821.86"/></text><text y="-1136.29" x="638.68" opacity=".8"><tspan y="-1136.29" x="638.68"/></text><text y="-509.6" x="2124.8" opacity=".8"><tspan y="-509.6" x="2124.8"/></text><text y="-550.34" x="2148.77" opacity=".8"><tspan y="-550.34" x="2148.77"/></text><text y="-557.55" x="657.3" opacity=".8"><tspan y="-557.55" x="657.3"/></text><text y="-830.79" x="2117.84" opacity=".8"><tspan y="-830.79" x="2117.84"/></text><text y="-605.64" x="-280.51" opacity=".8"><tspan y="-605.64" x="-280.51"/></text><text y="139.91" x="-2104.2" opacity=".8"><tspan y="139.91" x="-2104.2"/></text><text y="232.78" x="-389.44" opacity=".8"><tspan y="232.78" x="-389.44"/></text><text y="473.7" x="450.57" opacity=".8"><tspan y="473.7" x="450.57"/></text><text y="432.96" x="474.53" opacity=".8"><tspan y="432.96" x="474.53"/></text><text y="238.93" x="-795.29" opacity=".8"><tspan y="238.93" x="-795.29"/></text><text y="-174.54" x="12.316" opacity=".8"><tspan y="-174.54" x="12.316"/></text><text y="-215.28" x="36.28" opacity=".8"><tspan y="-215.28" x="36.28"/></text><text y="-222.49" x="-1455.19" opacity=".8"><tspan y="-222.49" x="-1455.19"/></text><text y="-495.73" x="5.357" opacity=".8"><tspan y="-495.73" x="5.357"/></text><text y="130.96" x="1491.48" opacity=".8"><tspan y="130.96" x="1491.48"/></text><text y="90.22" x="1515.44" opacity=".8"><tspan y="90.22" x="1515.44"/></text><text y="83.01" x="23.978" opacity=".8"><tspan y="83.01" x="23.978"/></text><text y="-190.22" x="1484.52" opacity=".8"><tspan y="-190.22" x="1484.52"/></text><text y="34.92" x="-913.84" opacity=".8"><tspan y="34.92" x="-913.84"/></text><text y="780.47" x="-2737.52" opacity=".8"><tspan y="780.47" x="-2737.52"/></text><text x="-1022.77" y="873.35" opacity=".8"><tspan x="-1022.77" y="873.35"/></text></g><text y="132.19" x="730.88" font-family="&apos;Droid Sans&apos;"><tspan y="132.19" x="730.88"/><tspan y="148.02" x="730.88"/></text><g font-family="&apos;Bitstream Vera Sans&apos;"><text y="-349.85" x="1196.07" opacity=".8"><tspan y="-349.85" x="1196.07"/></text><text y="395.7" x="-627.62" opacity=".8"><tspan y="395.7" x="-627.62"/></text><text y="-634.85" x="1923.15" opacity=".8"><tspan y="-634.85" x="1923.15"/></text><text y="-675.59" x="1947.11" opacity=".8"><tspan y="-675.59" x="1947.11"/></text><text y="-682.8" x="455.64" opacity=".8"><tspan y="-682.8" x="455.64"/></text><text y="-956.04" x="1916.19" opacity=".8"><tspan y="-956.04" x="1916.19"/></text></g></g><g transform="matrix(.10147 0 0 .10147 395.29 527.66)" stroke="none"><path d="m-884.1 294.78c-4.626 0-8.349 3.718-8.349 8.335v161.41l468.19 1v-121.2c0-4.618-3.724-8.335-8.35-8.335h-272.65c-8.51.751-9.607-.377-13.812-5.981-5.964-7.968-14.969-21.443-20.84-29.21-4.712-6.805-5.477-6.02-13.292-6.02z" transform="matrix(.54993 0 0 .54993 414.09-220.26)" fill="url(#0)" color="#000"/><rect width="463.85" height="295.13" x="-890.28" y="356.85" transform="matrix(.54993 0 0 .54993 414.09-220.26)" fill="url(#2)" stroke="url(#2)" stroke-width="2.378" rx="9.63"/><rect width="255.08" height="162.3" x="-75.5" y="-24.02" fill="none" stroke="url(#3)" stroke-linejoin="round" stroke-linecap="round" stroke-width="2.956" rx="5.296"/><path transform="matrix(9.855 0 0 9.855-109.58-121.3)" d="m19.852 12.309c-2.496 0-2.965 3.555-1.561 3.555 1.404 0 4.057-3.555 1.561-3.555m-3.982.443c-1.405.182-.91 2.626-.162 2.672.748.046 1.567-2.854.162-2.672m-2.354.961c-.062.007-.129.024-.199.053-1.129.466-.17 2.389.463 2.26.594-.121.66-2.411-.264-2.313m-1.754 1.506c-.098-.003-.205.029-.318.107-.904.625.304 2.132.836 1.898.465-.205.17-1.983-.518-2.01m5.162 1.154c-1.938-.033-4.494.938-4.93 2.891-.472 2.113 1.942 5.04 4.463 5.04 1.24 0 2.67-1.121 2.938-2.539.204-1.082-2.404-.647-2.311.068.112.858-.629 1.282-1.355.729-2.312-1.76 3.829-2.64 3.424-5.04-.126-.749-1.066-1.129-2.229-1.148" fill="url(#4)"/></g></g></svg>