<svg xmlns="http://www.w3.org/2000/svg" xmlns:xlink="http://www.w3.org/1999/xlink" viewBox="0 0 64 64"><defs><linearGradient xlink:href="#1" id="3" x1="315.52" y1="147.19" x2="310.67" y2="31.12" gradientUnits="userSpaceOnUse"/><linearGradient gradientUnits="userSpaceOnUse" y2="354.29" x2="-704.05" y1="647.77" x1="-701.19" id="2"><stop stop-color="#93cfff"/><stop offset="1" stop-color="#cde8fe"/></linearGradient><linearGradient xlink:href="#1" id="0" x1="59.12" y1="-13.295" x2="59.15" y2="-37.783" gradientUnits="userSpaceOnUse" gradientTransform="matrix(4.17478 0 0 4.16765-1066.12 447.73)"/><linearGradient id="1"><stop stop-color="#289bf7"/><stop offset="1" stop-color="#71b9f1"/></linearGradient></defs><g transform="matrix(.20826 0 0 .20826-33.371 16.982)" fill="#60aae5"><path d="m-880.52 294.78c-4.626 0-8.349 3.718-8.349 8.335v161.41l461.02 1v-121.2c0-4.618-3.724-8.335-8.35-8.335h-265.48c-8.51.751-9.607-.377-13.812-5.981-5.964-7.968-14.969-21.443-20.84-29.21-4.712-6.805-5.477-6.02-13.292-6.02z" transform="matrix(.60568 0 0 .60568 712.63-214.99)" fill="url(#0)" color="#000"/><rect y="356.85" x="-890.28" height="295.13" width="463.85" transform="matrix(.60568 0 0 .60568 712.63-214.99)" fill="url(#2)" stroke="url(#2)" stroke-width="2.378" rx="9.63"/><path d="m351.84 31.21c-24.602 0-29.21 35.04-15.371 35.04 13.838 0 39.974-35.04 15.371-35.04m-39.25 4.37c-13.845 1.797-8.976 25.875-1.604 26.325 7.369.45 15.454-28.12 1.604-26.325m-23.19 9.481c-.607.064-1.265.229-1.96.516-11.128 4.592-1.686 23.547 4.548 22.273 5.849-1.193 6.519-23.756-2.588-22.789m-17.294 14.827c-.968-.033-2.01.281-3.123 1.05-8.908 6.155 2.993 21.03 8.234 18.719 4.586-2.02 1.661-19.542-5.111-19.769m50.877 11.376c-19.1-.323-44.29 9.261-48.589 28.501-4.653 20.821 19.15 49.705 43.994 49.705 12.22 0 26.314-11.03 28.951-25.01 2.01-10.659-23.695-6.387-22.771.666 1.107 8.454-6.206 12.624-13.364 7.174-22.787-17.349 37.732-26 33.743-49.705-1.242-7.378-10.505-11.135-21.964-11.329" fill="url(#3)"/></g></svg>