<svg xmlns="http://www.w3.org/2000/svg" xmlns:xlink="http://www.w3.org/1999/xlink" viewBox="0 0 48 48"><defs><clipPath><path d="m108.81 58c-1.56 0-2.81 1.254-2.81 2.812v24.375c0 1.559 1.25 2.813 2.81 2.813h24.375c1.57 0 2.82-1.254 2.82-2.812v-24.375c0-1.559-1.25-2.813-2.81-2.813h-24.375zm7.188 4.5h10v8.75h5l-10 13.75-10-13.75h5v-8.75"/></clipPath><filter color-interpolation-filters="sRGB"><feGaussianBlur stdDeviation="1.71"/></filter><filter color-interpolation-filters="sRGB"><feGaussianBlur stdDeviation="1.2"/></filter><filter color-interpolation-filters="sRGB"><feGaussianBlur stdDeviation=".6375"/></filter><linearGradient xlink:href="#0" gradientUnits="userSpaceOnUse" y1="58" x2="0" y2="79.1"/><linearGradient gradientUnits="userSpaceOnUse" y1="72.38" x2="0" y2="63.54"><stop/><stop offset="1" stop-opacity="0"/></linearGradient><linearGradient gradientUnits="userSpaceOnUse" x1="-88" x2="-58"><stop stop-color="#499119"/><stop offset="1" stop-color="#8fd625"/></linearGradient><linearGradient id="2" x1="-42" x2="-6" gradientUnits="userSpaceOnUse"><stop stop-color="#c52828"/><stop offset="1" stop-color="#ff5454"/></linearGradient><linearGradient gradientUnits="userSpaceOnUse" gradientTransform="scale(1.0059.99417)" y1="92.54" x2="0" y2="7.02"><stop/><stop offset="1" stop-opacity=".588"/></linearGradient><linearGradient id="0"><stop stop-color="#fff"/><stop offset="1" stop-opacity="0" stop-color="#fff"/></linearGradient><linearGradient xlink:href="#0" gradientUnits="userSpaceOnUse" y1="71.38" x2="0" y2="62.54"/><linearGradient id="1" x1="410.57" y1="547.8" x2="408.57" y2="499.8" gradientUnits="userSpaceOnUse"><stop stop-color="#141414"/><stop offset="1" stop-color="#3a3a3d"/></linearGradient></defs><g transform="translate(-376.57-507.8)"><g transform="matrix(.90384 0 0 .90384 31.29 58.36)"><rect y="497.8" x="382.57" height="52" width="52" fill="url(#1)" fill-rule="evenodd" rx="1.5"/><g transform="matrix(.8 0 0 .8 389.37 504.6)"><g font-family="&apos;Bitstream Vera Sans&apos;"><g font-size="12.666"><text y="10.813" x="877.23" opacity=".8"><tspan y="10.813" x="877.23"/></text><text y="-29.929" x="901.19" opacity=".8"><tspan y="-29.929" x="901.19"/></text><text y="-60.01" x="-569.37" opacity=".8"><tspan y="-60.01" x="-569.37"/></text><text y="685.55" x="-2393.06" opacity=".8"><tspan y="685.55" x="-2393.06"/></text><text y="-445.33" x="-454.88" opacity=".8"><tspan y="-445.33" x="-454.88"/></text><text y="-858.8" x="352.72" opacity=".8"><tspan y="-858.8" x="352.72"/></text><text y="-899.54" x="376.68" opacity=".8"><tspan y="-899.54" x="376.68"/></text><text y="-906.75" x="-1114.78" opacity=".8"><tspan y="-906.75" x="-1114.78"/></text><text y="-1179.98" x="345.76" opacity=".8"><tspan y="-1179.98" x="345.76"/></text><text y="-553.29" x="1831.89" opacity=".8"><tspan y="-553.29" x="1831.89"/></text><text y="-594.03" x="1855.85" opacity=".8"><tspan y="-594.03" x="1855.85"/></text><text y="-601.24" x="364.38" opacity=".8"><tspan y="-601.24" x="364.38"/></text><text y="-874.48" x="1824.93" opacity=".8"><tspan y="-874.48" x="1824.93"/></text><text y="-649.34" x="-573.43" opacity=".8"><tspan y="-649.34" x="-573.43"/></text><text y="96.22" x="-2397.12" opacity=".8"><tspan y="96.22" x="-2397.12"/></text><text y="189.09" x="-682.36" opacity=".8"><tspan y="189.09" x="-682.36"/></text><text y="9.908" x="426.66" opacity=".8"><tspan y="9.908" x="426.66"/></text><text y="-30.834" x="450.62" opacity=".8"><tspan y="-30.834" x="450.62"/></text><text y="-38.04" x="-1040.84" opacity=".8"><tspan y="-38.04" x="-1040.84"/></text><text y="-311.28" x="419.7" opacity=".8"><tspan y="-311.28" x="419.7"/></text><text y="-40.758" x="-608.03" opacity=".8"><tspan y="-40.758" x="-608.03"/></text><text y="704.8" x="-2431.72" opacity=".8"><tspan y="704.8" x="-2431.72"/></text><text y="-902.29" x="-456.94" opacity=".8"><tspan y="-902.29" x="-456.94"/></text><text y="-1315.76" x="350.66" opacity=".8"><tspan y="-1315.76" x="350.66"/></text><text y="-1356.5" x="374.62" opacity=".8"><tspan y="-1356.5" x="374.62"/></text><text y="-1363.71" x="-1116.84" opacity=".8"><tspan y="-1363.71" x="-1116.84"/></text><text y="-1636.94" x="343.7" opacity=".8"><tspan y="-1636.94" x="343.7"/></text><text y="-1010.25" x="1829.83" opacity=".8"><tspan y="-1010.25" x="1829.83"/></text><text y="-1050.99" x="1853.79" opacity=".8"><tspan y="-1050.99" x="1853.79"/></text><text y="-1058.2" x="362.32" opacity=".8"><tspan y="-1058.2" x="362.32"/></text><text y="-1331.44" x="1822.87" opacity=".8"><tspan y="-1331.44" x="1822.87"/></text><text y="-1106.3" x="-575.49" opacity=".8"><tspan y="-1106.3" x="-575.49"/></text><text y="-360.74" x="-2399.18" opacity=".8"><tspan y="-360.74" x="-2399.18"/></text><text y="-267.87" x="-684.42" opacity=".8"><tspan y="-267.87" x="-684.42"/></text><text y="-26.956" x="155.59" opacity=".8"><tspan y="-26.956" x="155.59"/></text><text y="-67.7" x="179.55" opacity=".8"><tspan y="-67.7" x="179.55"/></text><text y="-261.73" x="-1090.26" opacity=".8"><tspan y="-261.73" x="-1090.26"/></text><text y="-675.2" x="-282.66" opacity=".8"><tspan y="-675.2" x="-282.66"/></text><text y="-715.94" x="-258.7" opacity=".8"><tspan y="-715.94" x="-258.7"/></text><text y="-723.15" x="-1750.16" opacity=".8"><tspan y="-723.15" x="-1750.16"/></text><text y="-996.38" x="-289.62" opacity=".8"><tspan y="-996.38" x="-289.62"/></text><text y="-369.69" x="1196.5" opacity=".8"><tspan y="-369.69" x="1196.5"/></text><text y="-410.43" x="1220.46" opacity=".8"><tspan y="-410.43" x="1220.46"/></text><text y="-417.64" x="-271" opacity=".8"><tspan y="-417.64" x="-271"/></text><text y="-690.88" x="1189.54" opacity=".8"><tspan y="-690.88" x="1189.54"/></text><text y="-465.73" x="-1208.82" opacity=".8"><tspan y="-465.73" x="-1208.82"/></text><text y="279.82" x="-3032.5" opacity=".8"><tspan y="279.82" x="-3032.5"/></text></g><text font-size="14" y="1159.42" x="-664.27" opacity=".8" transform="matrix(.90475 0 0 .90475-716.75-676.29)"><tspan y="1159.42" x="-664.27"/></text><g font-size="12.666"><text y="18.05" x="877.23" opacity=".8"><tspan y="18.05" x="877.23"/></text><text y="-22.691" x="901.19" opacity=".8"><tspan y="-22.691" x="901.19"/></text><text y="-52.769" x="-569.37" opacity=".8"><tspan y="-52.769" x="-569.37"/></text><text y="692.78" x="-2393.06" opacity=".8"><tspan y="692.78" x="-2393.06"/></text><text y="-438.09" x="-454.88" opacity=".8"><tspan y="-438.09" x="-454.88"/></text><text y="-851.56" x="352.72" opacity=".8"><tspan y="-851.56" x="352.72"/></text><text y="-892.3" x="376.68" opacity=".8"><tspan y="-892.3" x="376.68"/></text><text y="-899.51" x="-1114.78" opacity=".8"><tspan y="-899.51" x="-1114.78"/></text><text y="-1172.75" x="345.76" opacity=".8"><tspan y="-1172.75" x="345.76"/></text><text y="-546.05" x="1831.89" opacity=".8"><tspan y="-546.05" x="1831.89"/></text><text y="-586.8" x="1855.85" opacity=".8"><tspan y="-586.8" x="1855.85"/></text><text y="-594.01" x="364.38" opacity=".8"><tspan y="-594.01" x="364.38"/></text><text y="-867.24" x="1824.93" opacity=".8"><tspan y="-867.24" x="1824.93"/></text><text y="-642.1" x="-573.43" opacity=".8"><tspan y="-642.1" x="-573.43"/></text><text y="103.46" x="-2397.12" opacity=".8"><tspan y="103.46" x="-2397.12"/></text><text y="196.33" x="-682.36" opacity=".8"><tspan y="196.33" x="-682.36"/></text><text y="17.15" x="426.66" opacity=".8"><tspan y="17.15" x="426.66"/></text><text y="-23.596" x="450.62" opacity=".8"><tspan y="-23.596" x="450.62"/></text><text y="-30.806" x="-1040.84" opacity=".8"><tspan y="-30.806" x="-1040.84"/></text><text y="-304.04" x="419.7" opacity=".8"><tspan y="-304.04" x="419.7"/></text><text y="-33.52" x="-608.03" opacity=".8"><tspan y="-33.52" x="-608.03"/></text><text y="712.03" x="-2431.72" opacity=".8"><tspan y="712.03" x="-2431.72"/></text><text y="-895.05" x="-456.94" opacity=".8"><tspan y="-895.05" x="-456.94"/></text><text y="-1308.52" x="350.66" opacity=".8"><tspan y="-1308.52" x="350.66"/></text><text y="-1349.26" x="374.62" opacity=".8"><tspan y="-1349.26" x="374.62"/></text><text y="-1356.47" x="-1116.84" opacity=".8"><tspan y="-1356.47" x="-1116.84"/></text><text y="-1629.71" x="343.7" opacity=".8"><tspan y="-1629.71" x="343.7"/></text><text y="-1003.02" x="1829.83" opacity=".8"><tspan y="-1003.02" x="1829.83"/></text><text y="-1043.76" x="1853.79" opacity=".8"><tspan y="-1043.76" x="1853.79"/></text><text y="-1050.97" x="362.32" opacity=".8"><tspan y="-1050.97" x="362.32"/></text><text y="-1324.2" x="1822.87" opacity=".8"><tspan y="-1324.2" x="1822.87"/></text><text y="-1099.06" x="-575.49" opacity=".8"><tspan y="-1099.06" x="-575.49"/></text><text y="-353.5" x="-2399.18" opacity=".8"><tspan y="-353.5" x="-2399.18"/></text><text y="-260.63" x="-684.42" opacity=".8"><tspan y="-260.63" x="-684.42"/></text><text y="-19.718" x="155.59" opacity=".8"><tspan y="-19.718" x="155.59"/></text><text y="-60.46" x="179.55" opacity=".8"><tspan y="-60.46" x="179.55"/></text><text y="-254.49" x="-1090.26" opacity=".8"><tspan y="-254.49" x="-1090.26"/></text><text y="-667.96" x="-282.66" opacity=".8"><tspan y="-667.96" x="-282.66"/></text><text y="-708.7" x="-258.7" opacity=".8"><tspan y="-708.7" x="-258.7"/></text><text y="-715.91" x="-1750.16" opacity=".8"><tspan y="-715.91" x="-1750.16"/></text><text y="-989.14" x="-289.62" opacity=".8"><tspan y="-989.14" x="-289.62"/></text><text y="-362.45" x="1196.5" opacity=".8"><tspan y="-362.45" x="1196.5"/></text><text y="-403.19" x="1220.46" opacity=".8"><tspan y="-403.19" x="1220.46"/></text><text y="-410.4" x="-271" opacity=".8"><tspan y="-410.4" x="-271"/></text><text y="-683.64" x="1189.54" opacity=".8"><tspan y="-683.64" x="1189.54"/></text><text y="-458.5" x="-1208.82" opacity=".8"><tspan y="-458.5" x="-1208.82"/></text><text y="287.06" x="-3032.5" opacity=".8"><tspan y="287.06" x="-3032.5"/></text></g><text font-size="14" y="1159.42" x="-664.27" opacity=".8" transform="matrix(.90475 0 0 .90475-716.75-669.05)"><tspan y="1159.42" x="-664.27"/></text></g><g font-size="12.666"><text y="-361.23" x="435.9" font-family="&apos;Droid Sans&apos;"><tspan y="-361.23" x="435.9"/><tspan y="-345.39" x="435.9"/></text><g font-family="&apos;Bitstream Vera Sans&apos;"><text y="-843.27" x="901.09" opacity=".8"><tspan y="-843.27" x="901.09"/></text><text y="-97.72" x="-922.6" opacity=".8"><tspan y="-97.72" x="-922.6"/></text><text y="-1128.27" x="1628.17" opacity=".8"><tspan y="-1128.27" x="1628.17"/></text><text y="-1169.01" x="1652.13" opacity=".8"><tspan y="-1169.01" x="1652.13"/></text><text y="-1176.22" x="160.67" opacity=".8"><tspan y="-1176.22" x="160.67"/></text><text y="-1449.45" x="1621.21" opacity=".8"><tspan y="-1449.45" x="1621.21"/></text></g></g><rect ry="2.25" rx="1.8" transform="matrix(0-1-1 0 0 0)" height="36" width="36" y="-42" x="-42" fill="url(#2)"/></g><g transform="translate(-.5 1.9)" fill="#fff" fill-opacity=".851"><path d="m427.57 543.8v1h-1v-1h1m-1 1v1h-1v-1h1m-1 0h-1v-1h1v1m-1 0v1h-1v-1h1m-1 0h-1v-1h1v1m-1 0v1h-1v-1h1m-1 0h-1v-1h1v1m-1 0v1h-1v-1h1m-1 0h-1v-1h1v1m-1 0v1h-1v-1h1m-1 0h-1v-1h1v1m-1 0v1h-1v-1h1m-1 0h-1v-1h1v1m-1 0v1h-1v-1h1m-1 0h-1v-1h1v1m-1 0v1h-1v-1h1" color="#000"/><path d="m431.57 543.8l-2 2h2v-2" fill-rule="evenodd"/><g color="#000"><path d="m387.57 543.8v1h1v-1h-1m1 1v1h1v-1h-1m1 0h1v-1h-1v1m1 0v1h1v-1h-1m1 0h1v-1h-1v1m1 0v1h1v-1h-1m1 0h1v-1h-1v1m1 0v1h1v-1h-1m1 0h1v-1h-1v1m1 0v1h1v-1h-1m1 0h1v-1h-1v1m1 0v1h1v-1h-1m1 0h1v-1h-1v1m1 0v1h1v-1h-1m1 0h1v-1h-1v1m1 0v1h1v-1h-1"/><path d="m432.57 521.8h-1v-1h1v1m-1-1h-1v-1h1v1m0-1v-1h1v1h-1m0-1h-1v-1h1v1m0-1v-1h1v1h-1m0-1h-1v-1h1v1m0-1v-1h1v1h-1m0-1h-1v-1h1v1m0-1v-1h1v1h-1m0-1h-1v-1h1v1m0-1v-1h1v1h-1m0-1h-1v-1h1v1m0-1v-1h1v1h-1m0-1h-1v-1h1v1m0-1v-1h1v1h-1m0-1h-1v-1h1v1"/><path transform="translate(376.57 491.8)" d="m54 40v1h1v-1zm1 1v1h1v-1zm0 1h-1v1h1zm0 1v1h1v-1zm0 1h-1v1h1zm0 1v1h1v-1zm0 1h-1v1h1zm0 1v1h1v-1zm0 1h-1v1h1z"/></g></g><g transform="matrix(.29254 0 0 .29164 551.65 572.09)" fill="#f7f7ff" fill-opacity=".847" color="#000"><ellipse ry="2.5" rx="2.5" cy="-130.51" cx="-462.61"/><ellipse ry="3" rx="3" cy="-123.01" cx="-458.11"/><ellipse ry="1.5" rx="1.5" cy="-138.51" cx="-460.61"/><path d="m-452.11-140.01l-2.844 2.844 4.375 4.375-4.531 5.156 3 2.625 7-8-7-7"/></g></g><g transform="matrix(.02755 0 0 .02755 392.57 532.55)" fill="#f7f7ff" fill-opacity=".847"><path d="m187.89 178.12h-44.37l-13.573-32.738h-73.944l-12.366 32.738h-43.637l66.67-165.35h47.761l73.46 165.35m-96.73-125.84l-24.24 64.24h50.913l-26.67-64.24"/><path d="m349.06 12.776h35.88v165.35h-41.22v-103.28l-44.608 51.877h-6.301l-44.605-51.877v103.28h-41.22v-165.34h35.88l53.09 61.34 53.1-61.34"/><path d="m489.37 12.776c60.36 0 91.39 37.573 91.39 82.909 0 47.52-30.06 82.44-96 82.44h-68.37v-165.35h72.978m-31.762 135.04h26.906c41.457 0 53.823-28.13 53.823-52.38 0-28.368-15.276-52.36-54.31-52.36h-26.422v104.74"/><g transform="translate(-407.81-232.55)"><path d="m610.8 0h189.2v189.21l-51.97-51.97v-85.26h-85.26z"/><path d="m609.2 115.9v74.9h74.89l53.5-53.5h-74.88v-74.9z"/></g></g></g></svg>