<svg xmlns="http://www.w3.org/2000/svg" viewBox="0 0 48 48"><defs><linearGradient id="0" y1="542.8" x2="0" y2="507.8" gradientUnits="userSpaceOnUse" gradientTransform="matrix(1.0478 0 0 .99815-19.397 1.922)"><stop stop-color="#197cf1"/><stop offset="1" stop-color="#20bcfa"/></linearGradient><linearGradient id="1" x1="421.13" y1="543.39" x2="421.34" y2="509.27" gradientUnits="userSpaceOnUse" gradientTransform="matrix(.98161 0 0 1.0002 7.945-.092)"><stop stop-color="#a0d5ff"/><stop offset="1" stop-color="#fff"/></linearGradient><linearGradient id="2" x1="365.47" y1="525.82" x2="366.06" y2="520.07" gradientUnits="userSpaceOnUse"><stop stop-color="#18222a"/><stop offset="1" stop-color="#3f454c"/></linearGradient></defs><g transform="matrix(1.03513 0 0 1.03513-399.23-517.94)"><path d="m43.887-36.699c-1.108 0-2 .892-2 2v81.61l111 .24v-70.04c0-1.108-.892-2-2-2h-60.17c-2.039.18-2.301-.09-3.308-1.435-1.429-1.912-3.586-7.06-4.992-8.929-1.129-1.633-1.312-1.443-3.184-1.443z" color="#000" transform="matrix(.41387 0 0 .41663 368.32 519.69)" fill="#20bafa"/><rect y="508.78" x="385.65" height="33.937" width="46.1" fill="url(#0)" rx="1.597"/><path d="m412.3 542.7c-1.728-5.179-2.265-9.18-1.104-15.546h-6.577c-.24-5.962 1.508-11.953 4.744-18.352h18.371c3.288-.053 4.254-.171 4.254 2.348v28.911c.264 2.774-.93 2.64-4.254 2.64z" opacity=".83" fill="url(#1)" fill-rule="evenodd"/><g transform="matrix(.63217 0 0 .63217 191.85 184.53)" fill="#1fb5f9"><circle cx="373.37" cy="518.74" r="2.25"/><circle cx="367.84" cy="518.78" r="2.25"/><circle cx="362.41" cy="518.84" r="2.25"/></g><g transform="matrix(.39992 0 0 .39992 399.51 518.37)"><path d="m4.399 44.498c0 0-4.926-8.269 3.217-8.471 0 0 15.531 3.353 30.23-8.828 6.972-4.212 7.27 5.408 7.27 5.408-.446 14.524-16.8 18.13-16.8 18.13 0 0-15.723 5.763-23.915-6.239" opacity=".997" fill="#19384b"/><path d="m373.95 531.4c0-1.919 1.56-3.477 3.484-3.477 1.923 0 3.483 1.557 3.483 3.477 0 1.921-1.56 3.478-3.483 3.478-1.924-.0001-3.484-1.557-3.484-3.478m15.797 0c0-1.919 1.562-3.477 3.485-3.477 1.923 0 3.484 1.557 3.484 3.477 0 1.921-1.56 3.478-3.484 3.478-1.923-.0001-3.485-1.557-3.485-3.478" transform="matrix(2.08477 0 0 2.08477-787.32-1105.18)" opacity=".837" fill="url(#2)"/></g></g></svg>