<svg xmlns="http://www.w3.org/2000/svg" xmlns:xlink="http://www.w3.org/1999/xlink" viewBox="0 0 48 48"><defs><linearGradient gradientUnits="userSpaceOnUse" y2="512.63" x2="408.16" y1="518.7" x1="408.15" id="3" xlink:href="#0"/><linearGradient id="2" x1="409.56" y1="544.81" x2="409.81" y2="504.66" gradientUnits="userSpaceOnUse" gradientTransform="matrix(1.0478 0 0 .99815 44.42 7.936)"><stop stop-color="#a0d5ff"/><stop offset="1" stop-color="#edf7f7"/></linearGradient><linearGradient id="0"><stop stop-color="#197cf1"/><stop offset="1" stop-color="#20bcfa"/></linearGradient><linearGradient gradientUnits="userSpaceOnUse" y2="-40.76" x2="248.04" y1="-2.274" x1="248.2" id="1" xlink:href="#0"/></defs><g transform="matrix(.89632 0 0 .89632-342.21-442.25)"><g transform="matrix(1.16158 0 0 1.16158-140.3-93.21)"><path d="m204.25-29.481c-1.108 0-2 .892-2 2v81.61l104.06.24v-70.04c0-1.108-.892-2-2-2h-48.601c-2.039.18-2.301-.09-3.308-1.435-1.429-1.912-3.586-7.06-4.992-8.929-1.129-1.633-1.312-1.443-3.184-1.443z" transform="matrix(.41386 0 0 .41663 366.98 519.7)" fill="url(#1)" color="#000"/><rect y="514.8" x="449.47" height="33.937" width="46.1" fill="url(#2)" rx="1.597"/></g><rect width="16.2" height="3" x="400.47" y="514.43" fill="url(#3)" fill-rule="evenodd" rx="1.319"/></g></svg>