<svg xmlns="http://www.w3.org/2000/svg" xmlns:xlink="http://www.w3.org/1999/xlink" viewBox="0 0 64 64"><defs><linearGradient id="3"><stop stop-color="#289bf7"/><stop offset="1" stop-color="#71b9f1"/></linearGradient><linearGradient xlink:href="#3" id="2" x1="-424.19" y1="453.1" x2="-422.95" y2="275.8" gradientUnits="userSpaceOnUse"/><linearGradient xlink:href="#3" id="0" x1="59.12" y1="-13.295" x2="59.15" y2="-37.783" gradientUnits="userSpaceOnUse" gradientTransform="matrix(4.17478 0 0 4.16765-1066.12 447.73)"/><linearGradient gradientUnits="userSpaceOnUse" y2="354.29" x2="-704.05" y1="647.77" x1="-701.19" id="1"><stop stop-color="#93cfff"/><stop offset="1" stop-color="#cde8fe"/></linearGradient></defs><g transform="matrix(.12614 0 0 .12614 85.51-10.1)"><path d="m-880.52 294.78c-4.626 0-8.349 3.718-8.349 8.335v161.41l461.02 1v-121.2c0-4.618-3.724-8.335-8.35-8.335h-265.48c-8.51.751-9.607-.377-13.812-5.981-5.964-7.968-14.969-21.443-20.84-29.21-4.712-6.805-5.477-6.02-13.292-6.02z" transform="translate(234.13-140.27)" fill="url(#0)" color="#000"/><rect width="463.85" height="295.13" x="-890.28" y="356.85" transform="translate(234.13-140.27)" fill="url(#1)" stroke="url(#1)" stroke-width="2.378" rx="9.63"/><path d="m-419.77 271.93c-21.2.687 56.48 107.86-3.349 101.01 49.89 13.823 61.32-50.568 51.13-82.07-10.09-31.2-15.336-11.732-45.41-18.662-.899-.207-1.689-.301-2.369-.278m-59.45 14.938c-32.793-.044-15.896 10.967-31.782 37.432-15.171 25.27 119.84-19.992 94.04 36.555 28.56-43.17-29.15-73.942-62.26-73.985zm23.07 48.38c-26.24-.063-52.644 29.753-60.03 52.37-10.176 31.18 5.513 18.513 25.773 41.797 19.346 22.242 18.03-120.16 63.837-78.15-9.07-11.392-19.313-15.992-29.583-16.02m112.78 5.063c-17.714 1.695-82.33 83.83-93.15 30.528 2.272 51.714 67.06 42.687 93.86 23.263 26.557-19.241 6.411-18.222 3.707-48.97-.323-3.671-1.892-5.064-4.422-4.822zm-95.29 17.12c-48.48 18.14-19.873 76.968 6.885 96.46 26.505 19.312 19.311.469 47.716-11.604 27.13-11.53-108.71-54.27-54.604-84.86z" fill="url(#2)" fill-rule="evenodd"/></g></svg>